%
M48
M72
T01C0.02756
T02C0.03150
T03C0.03200
T04C0.03543
T05C0.04000
T06C0.04600
T07C0.04700
T08C0.10000
T09C0.12598
%
T01
X258440Y74139
X279690Y266639
T02
X279690Y287889
X289690Y287889
X299690Y287889
X309690Y287889
X319690Y287889
X329690Y287889
X269690Y287889
X259690Y287889
X259690Y197889
X269690Y197889
X279690Y197889
X289690Y197889
X299690Y197889
X309690Y197889
X319690Y197889
X329690Y197889
X249690Y117889
X249690Y107889
X239690Y107889
X229690Y107889
X229690Y117889
X239690Y117889
X219690Y117889
X219690Y107889
X209690Y107889
X199690Y107889
X199690Y117889
X209690Y117889
X189690Y117889
X189690Y107889
T03
X179690Y87889
X179690Y77889
X179690Y67889
X189690Y62889
X199690Y62889
X209690Y62889
X219690Y62889
X234690Y57889
X234690Y47889
X234690Y37889
X219690Y42889
X199690Y42889
X189690Y42889
X174690Y37889
X174690Y57889
X199690Y82889
X219690Y82889
X229690Y82889
X234690Y67889
X249690Y82889
X269690Y77889
X269690Y67889
X269690Y57889
X269690Y47889
X284690Y47889
X299690Y47889
X299690Y62889
X299690Y72889
X299690Y82889
X292190Y89139
X299690Y97889
X299690Y107889
X299690Y117889
X304690Y127889
X319690Y127889
X314690Y115389
X314690Y101639
X334690Y101639
X334690Y115389
X334690Y82889
X324690Y82889
X314690Y82889
X319690Y62889
X319690Y47889
X339690Y62889
X284690Y67889
X272190Y89139
X274690Y107889
X274690Y127889
X289690Y127889
X289690Y137889
X289690Y147889
X304690Y147889
X319690Y147889
X249690Y147889
X239690Y147889
X229690Y147889
X219690Y147889
X209690Y147889
X199690Y147889
X189690Y147889
X179690Y147889
X162190Y128639
X162190Y114639
X139690Y122889
X124690Y132889
X124690Y142889
X124690Y152889
X119690Y165389
X124690Y179139
X124690Y189139
X124690Y199139
X124690Y209139
X109690Y212889
X109690Y202889
X99690Y202889
X89690Y212889
X89690Y232889
X99690Y232889
X119690Y232889
X134690Y232889
X148690Y232889
X167190Y224139
X154690Y209139
X154690Y199139
X154690Y189139
X154690Y179139
X139690Y165389
X139690Y152889
X109690Y182889
X99690Y182889
X69690Y232889
X49690Y232889
X35690Y232889
X167190Y244139
X193440Y244889
X193440Y230889
X189690Y177889
X199690Y177889
X209690Y177889
X219690Y177889
X229690Y177889
X239690Y177889
X249690Y177889
X179690Y177889
X249690Y47889
X254690Y37889
T04
X123627Y77889
X107682Y77889
X81697Y77889
X65753Y77889
T05
X39690Y112889
X84690Y172889
X84690Y182889
X84690Y192889
X39690Y202889
X84690Y262889
X94690Y262889
X104690Y262889
T06
X184847Y282889
X204532Y282889
T07
X104690Y147889
X64690Y147889
T08
X44690Y275889
X144690Y275889
T09
X24690Y32889
X24690Y287889
X354690Y287889
X354690Y32889
M30
