G75*
%MOIN*%
%OFA0B0*%
%FSLAX25Y25*%
%IPPOS*%
%LPD*%
%AMOC8*
5,1,8,0,0,1.08239X$1,22.5*
%
%ADD10OC8,0.05550*%
%ADD11C,0.05600*%
%ADD12R,0.05550X0.05550*%
%ADD13C,0.05550*%
%ADD14OC8,0.06400*%
%ADD15OC8,0.05600*%
%ADD16OC8,0.06300*%
%ADD17C,0.06300*%
%ADD18R,0.20000X0.50000*%
%ADD19C,0.06400*%
%ADD20C,0.07100*%
%ADD21C,0.15000*%
%ADD22R,0.08000X0.08000*%
%ADD23C,0.08000*%
%ADD24C,0.05943*%
%ADD25C,0.05000*%
%ADD26R,0.04356X0.04356*%
%ADD27C,0.03200*%
D10*
X0259690Y0197889D03*
X0269690Y0197889D03*
X0279690Y0197889D03*
X0289690Y0197889D03*
X0299690Y0197889D03*
X0309690Y0197889D03*
X0319690Y0197889D03*
X0329690Y0197889D03*
X0329690Y0287889D03*
X0319690Y0287889D03*
X0309690Y0287889D03*
X0299690Y0287889D03*
X0289690Y0287889D03*
X0279690Y0287889D03*
X0269690Y0287889D03*
X0259690Y0287889D03*
D11*
X0157490Y0209139D02*
X0151890Y0209139D01*
X0151890Y0199139D02*
X0157490Y0199139D01*
X0157490Y0189139D02*
X0151890Y0189139D01*
X0151890Y0179139D02*
X0157490Y0179139D01*
X0179690Y0180689D02*
X0179690Y0175089D01*
X0189690Y0175089D02*
X0189690Y0180689D01*
X0199690Y0180689D02*
X0199690Y0175089D01*
X0209690Y0175089D02*
X0209690Y0180689D01*
X0219690Y0180689D02*
X0219690Y0175089D01*
X0229690Y0175089D02*
X0229690Y0180689D01*
X0239690Y0180689D02*
X0239690Y0175089D01*
X0249690Y0175089D02*
X0249690Y0180689D01*
X0249690Y0150689D02*
X0249690Y0145089D01*
X0239690Y0145089D02*
X0239690Y0150689D01*
X0229690Y0150689D02*
X0229690Y0145089D01*
X0219690Y0145089D02*
X0219690Y0150689D01*
X0209690Y0150689D02*
X0209690Y0145089D01*
X0199690Y0145089D02*
X0199690Y0150689D01*
X0189690Y0150689D02*
X0189690Y0145089D01*
X0179690Y0145089D02*
X0179690Y0150689D01*
X0139690Y0150089D02*
X0139690Y0155689D01*
X0127490Y0152889D02*
X0121890Y0152889D01*
X0121890Y0142889D02*
X0127490Y0142889D01*
X0127490Y0132889D02*
X0121890Y0132889D01*
X0139690Y0125689D02*
X0139690Y0120089D01*
X0176890Y0087889D02*
X0182490Y0087889D01*
X0182490Y0077889D02*
X0176890Y0077889D01*
X0176890Y0067889D02*
X0182490Y0067889D01*
X0199690Y0065689D02*
X0199690Y0060089D01*
X0209690Y0060089D02*
X0209690Y0065689D01*
X0219690Y0065689D02*
X0219690Y0060089D01*
X0231890Y0057889D02*
X0237490Y0057889D01*
X0237490Y0047889D02*
X0231890Y0047889D01*
X0231890Y0067889D02*
X0237490Y0067889D01*
X0266890Y0067889D02*
X0272490Y0067889D01*
X0272490Y0077889D02*
X0266890Y0077889D01*
X0266890Y0057889D02*
X0272490Y0057889D01*
X0296890Y0062889D02*
X0302490Y0062889D01*
X0302490Y0072889D02*
X0296890Y0072889D01*
X0296890Y0082889D02*
X0302490Y0082889D01*
X0314690Y0080089D02*
X0314690Y0085689D01*
X0324690Y0085689D02*
X0324690Y0080089D01*
X0334690Y0080089D02*
X0334690Y0085689D01*
X0302490Y0097889D02*
X0296890Y0097889D01*
X0296890Y0107889D02*
X0302490Y0107889D01*
X0302490Y0117889D02*
X0296890Y0117889D01*
X0292490Y0127889D02*
X0286890Y0127889D01*
X0286890Y0137889D02*
X0292490Y0137889D01*
X0292490Y0147889D02*
X0286890Y0147889D01*
X0127490Y0179139D02*
X0121890Y0179139D01*
X0121890Y0189139D02*
X0127490Y0189139D01*
X0127490Y0199139D02*
X0121890Y0199139D01*
X0121890Y0209139D02*
X0127490Y0209139D01*
D12*
X0189690Y0107889D03*
D13*
X0199690Y0107889D03*
X0209690Y0107889D03*
X0219690Y0107889D03*
X0229690Y0107889D03*
X0239690Y0107889D03*
X0249690Y0107889D03*
X0249690Y0117889D03*
X0239690Y0117889D03*
X0229690Y0117889D03*
X0219690Y0117889D03*
X0209690Y0117889D03*
X0199690Y0117889D03*
X0189690Y0117889D03*
D14*
X0039690Y0112889D03*
X0039690Y0202889D03*
D15*
X0069690Y0232889D03*
X0089690Y0232889D03*
X0099690Y0232889D03*
X0119690Y0232889D03*
X0109690Y0212889D03*
X0109690Y0202889D03*
X0099690Y0202889D03*
X0089690Y0212889D03*
X0099690Y0182889D03*
X0109690Y0182889D03*
X0119690Y0165389D03*
X0139690Y0165389D03*
X0167190Y0224139D03*
X0167190Y0244139D03*
X0304690Y0147889D03*
X0319690Y0147889D03*
X0319690Y0127889D03*
X0314690Y0115389D03*
X0314690Y0101639D03*
X0334690Y0101639D03*
X0334690Y0115389D03*
X0304690Y0127889D03*
X0274690Y0127889D03*
X0274690Y0107889D03*
X0272190Y0089139D03*
X0292190Y0089139D03*
X0284690Y0067889D03*
X0284690Y0047889D03*
X0299690Y0047889D03*
X0319690Y0047889D03*
X0319690Y0062889D03*
X0339690Y0062889D03*
X0269690Y0047889D03*
X0254690Y0037889D03*
X0249690Y0047889D03*
X0234690Y0037889D03*
X0219690Y0042889D03*
X0199690Y0042889D03*
X0189690Y0042889D03*
X0174690Y0037889D03*
X0174690Y0057889D03*
X0189690Y0062889D03*
X0199690Y0082889D03*
X0219690Y0082889D03*
X0229690Y0082889D03*
X0249690Y0082889D03*
D16*
X0162190Y0128639D03*
X0134690Y0232889D03*
X0193440Y0244889D03*
X0049690Y0232889D03*
D17*
X0035690Y0232889D03*
X0148690Y0232889D03*
X0193440Y0230889D03*
X0162190Y0114639D03*
D18*
X0149690Y0077889D03*
X0039690Y0077889D03*
D19*
X0081490Y0172889D02*
X0087890Y0172889D01*
X0087890Y0182889D02*
X0081490Y0182889D01*
X0081490Y0192889D02*
X0087890Y0192889D01*
X0084690Y0259689D02*
X0084690Y0266089D01*
X0094690Y0266089D02*
X0094690Y0259689D01*
X0104690Y0259689D02*
X0104690Y0266089D01*
D20*
X0108240Y0147889D02*
X0101140Y0147889D01*
X0068240Y0147889D02*
X0061140Y0147889D01*
D21*
X0044690Y0275889D03*
X0144690Y0275889D03*
D22*
X0204532Y0282889D03*
D23*
X0184847Y0282889D03*
D24*
X0123627Y0077889D03*
X0107682Y0077889D03*
X0081697Y0077889D03*
X0065753Y0077889D03*
D25*
X0034931Y0025030D02*
X0034290Y0024389D01*
X0178997Y0024389D01*
X0177929Y0025457D01*
X0172297Y0031089D01*
X0171873Y0031089D01*
X0167890Y0035072D01*
X0167890Y0040706D01*
X0171873Y0044689D01*
X0177506Y0044689D01*
X0181490Y0040706D01*
X0181490Y0040281D01*
X0186132Y0035639D01*
X0227890Y0035639D01*
X0227890Y0040706D01*
X0228190Y0041006D01*
X0228190Y0042061D01*
X0228038Y0042124D01*
X0226490Y0043672D01*
X0226490Y0040072D01*
X0222506Y0036089D01*
X0216873Y0036089D01*
X0212890Y0040072D01*
X0212890Y0045706D01*
X0213190Y0046006D01*
X0213190Y0047197D01*
X0206490Y0040497D01*
X0206490Y0040072D01*
X0202506Y0036089D01*
X0196873Y0036089D01*
X0196573Y0036389D01*
X0192806Y0036389D01*
X0192506Y0036089D01*
X0186873Y0036089D01*
X0182890Y0040072D01*
X0182890Y0045706D01*
X0186873Y0049689D01*
X0192506Y0049689D01*
X0192806Y0049389D01*
X0196573Y0049389D01*
X0196873Y0049689D01*
X0197297Y0049689D01*
X0200897Y0053289D01*
X0198337Y0053289D01*
X0195838Y0054324D01*
X0193925Y0056237D01*
X0193553Y0057136D01*
X0192506Y0056089D01*
X0186873Y0056089D01*
X0186573Y0056389D01*
X0183397Y0056389D01*
X0181490Y0057179D01*
X0181490Y0055072D01*
X0177506Y0051089D01*
X0171873Y0051089D01*
X0167890Y0055072D01*
X0167890Y0055497D01*
X0164179Y0059207D01*
X0163690Y0060389D01*
X0163690Y0052093D01*
X0163081Y0050623D01*
X0161955Y0049498D01*
X0160485Y0048889D01*
X0138894Y0048889D01*
X0137424Y0049498D01*
X0136298Y0050623D01*
X0135690Y0052093D01*
X0135690Y0071389D01*
X0126152Y0071389D01*
X0125013Y0070917D01*
X0122240Y0070917D01*
X0121101Y0071389D01*
X0110207Y0071389D01*
X0109068Y0070917D01*
X0106295Y0070917D01*
X0103733Y0071979D01*
X0101771Y0073940D01*
X0100710Y0076502D01*
X0100710Y0079276D01*
X0101771Y0081838D01*
X0103733Y0083799D01*
X0106295Y0084861D01*
X0109068Y0084861D01*
X0110207Y0084389D01*
X0121101Y0084389D01*
X0122240Y0084861D01*
X0125013Y0084861D01*
X0126152Y0084389D01*
X0135690Y0084389D01*
X0135690Y0103685D01*
X0136298Y0105155D01*
X0137424Y0106280D01*
X0138894Y0106889D01*
X0160485Y0106889D01*
X0161955Y0106280D01*
X0163081Y0105155D01*
X0163690Y0103685D01*
X0163690Y0075389D01*
X0164179Y0076571D01*
X0166008Y0078399D01*
X0171008Y0083399D01*
X0172050Y0083831D01*
X0171501Y0084587D01*
X0171051Y0085471D01*
X0170745Y0086414D01*
X0170590Y0087393D01*
X0170590Y0087889D01*
X0179689Y0087889D01*
X0179689Y0087889D01*
X0170590Y0087889D01*
X0170590Y0088385D01*
X0170745Y0089364D01*
X0171051Y0090307D01*
X0171501Y0091191D01*
X0172084Y0091993D01*
X0172785Y0092694D01*
X0173588Y0093277D01*
X0174471Y0093727D01*
X0175414Y0094034D01*
X0176394Y0094189D01*
X0179689Y0094189D01*
X0179689Y0087889D01*
X0179690Y0087889D01*
X0179690Y0087889D01*
X0188790Y0087889D01*
X0188790Y0088385D01*
X0188634Y0089364D01*
X0188328Y0090307D01*
X0187878Y0091191D01*
X0187295Y0091993D01*
X0186594Y0092694D01*
X0185791Y0093277D01*
X0184908Y0093727D01*
X0183965Y0094034D01*
X0182985Y0094189D01*
X0179690Y0094189D01*
X0179690Y0087889D01*
X0188790Y0087889D01*
X0188790Y0087393D01*
X0188634Y0086414D01*
X0188328Y0085471D01*
X0187878Y0084587D01*
X0187295Y0083785D01*
X0186753Y0083243D01*
X0188254Y0081741D01*
X0189290Y0079242D01*
X0189290Y0076536D01*
X0188254Y0074037D01*
X0187106Y0072889D01*
X0188254Y0071741D01*
X0189104Y0069689D01*
X0192506Y0069689D01*
X0193190Y0069006D01*
X0193190Y0079772D01*
X0192890Y0080072D01*
X0192890Y0085706D01*
X0196873Y0089689D01*
X0202506Y0089689D01*
X0206490Y0085706D01*
X0206490Y0080072D01*
X0206190Y0079772D01*
X0206190Y0071600D01*
X0208337Y0072489D01*
X0211042Y0072489D01*
X0213541Y0071454D01*
X0214690Y0070306D01*
X0215838Y0071454D01*
X0218337Y0072489D01*
X0221042Y0072489D01*
X0223541Y0071454D01*
X0225454Y0069541D01*
X0225685Y0068985D01*
X0225745Y0069364D01*
X0226051Y0070307D01*
X0226501Y0071191D01*
X0227084Y0071993D01*
X0227785Y0072694D01*
X0228588Y0073277D01*
X0229471Y0073727D01*
X0230414Y0074034D01*
X0231394Y0074189D01*
X0234689Y0074189D01*
X0234689Y0067889D01*
X0234690Y0067889D01*
X0234690Y0067889D01*
X0243790Y0067889D01*
X0243790Y0067393D01*
X0243634Y0066414D01*
X0243328Y0065471D01*
X0242878Y0064587D01*
X0242329Y0063831D01*
X0243371Y0063399D01*
X0252082Y0054689D01*
X0252506Y0054689D01*
X0253190Y0054006D01*
X0253190Y0064182D01*
X0254179Y0066571D01*
X0256008Y0068399D01*
X0256008Y0068399D01*
X0259179Y0071571D01*
X0259179Y0071571D01*
X0261008Y0073399D01*
X0261541Y0073621D01*
X0261125Y0074037D01*
X0260151Y0076389D01*
X0252806Y0076389D01*
X0252506Y0076089D01*
X0246873Y0076089D01*
X0242890Y0080072D01*
X0242890Y0085706D01*
X0245285Y0088101D01*
X0244179Y0089207D01*
X0236190Y0097197D01*
X0236190Y0086006D01*
X0236490Y0085706D01*
X0236490Y0080072D01*
X0232506Y0076089D01*
X0226873Y0076089D01*
X0224690Y0078272D01*
X0222506Y0076089D01*
X0216873Y0076089D01*
X0212890Y0080072D01*
X0212890Y0085706D01*
X0213190Y0086006D01*
X0213190Y0102006D01*
X0211037Y0101114D01*
X0208342Y0101114D01*
X0205852Y0102146D01*
X0204690Y0103308D01*
X0203527Y0102146D01*
X0201037Y0101114D01*
X0198342Y0101114D01*
X0195852Y0102146D01*
X0195502Y0102495D01*
X0194730Y0101723D01*
X0193260Y0101114D01*
X0186119Y0101114D01*
X0185456Y0101389D01*
X0183397Y0101389D01*
X0181008Y0102379D01*
X0179179Y0104207D01*
X0175429Y0107957D01*
X0174440Y0110346D01*
X0174440Y0122697D01*
X0168840Y0128297D01*
X0168840Y0125885D01*
X0164944Y0121989D01*
X0162190Y0121989D01*
X0162190Y0128639D01*
X0162189Y0128639D01*
X0155540Y0128639D01*
X0155540Y0125885D01*
X0159435Y0121989D01*
X0162189Y0121989D01*
X0162189Y0128639D01*
X0162189Y0128639D01*
X0155540Y0128639D01*
X0155540Y0131394D01*
X0159435Y0135289D01*
X0162189Y0135289D01*
X0162189Y0128639D01*
X0162190Y0128639D01*
X0162190Y0135289D01*
X0163213Y0135289D01*
X0163190Y0135346D01*
X0163190Y0159182D01*
X0164179Y0161571D01*
X0166008Y0163399D01*
X0173190Y0170581D01*
X0173190Y0173012D01*
X0172890Y0173736D01*
X0172890Y0182042D01*
X0173925Y0184541D01*
X0175838Y0186454D01*
X0178337Y0187489D01*
X0181042Y0187489D01*
X0183541Y0186454D01*
X0184090Y0185906D01*
X0184090Y0187714D01*
X0184031Y0188651D01*
X0184090Y0188822D01*
X0184090Y0189003D01*
X0184449Y0189871D01*
X0184753Y0190759D01*
X0184873Y0190894D01*
X0184942Y0191061D01*
X0185606Y0191725D01*
X0259873Y0275894D01*
X0259942Y0276061D01*
X0260606Y0276725D01*
X0261227Y0277429D01*
X0261390Y0277509D01*
X0261517Y0277637D01*
X0262385Y0277996D01*
X0263228Y0278409D01*
X0263409Y0278420D01*
X0263576Y0278489D01*
X0264515Y0278489D01*
X0265452Y0278548D01*
X0265623Y0278489D01*
X0277370Y0278489D01*
X0279995Y0281114D01*
X0276883Y0281114D01*
X0274690Y0283308D01*
X0272496Y0281114D01*
X0266883Y0281114D01*
X0264690Y0283308D01*
X0262496Y0281114D01*
X0256883Y0281114D01*
X0252915Y0285083D01*
X0252915Y0290695D01*
X0256883Y0294664D01*
X0262496Y0294664D01*
X0264690Y0292470D01*
X0266883Y0294664D01*
X0272496Y0294664D01*
X0274690Y0292470D01*
X0276883Y0294664D01*
X0282496Y0294664D01*
X0284690Y0292470D01*
X0286883Y0294664D01*
X0292496Y0294664D01*
X0294690Y0292470D01*
X0296883Y0294664D01*
X0302496Y0294664D01*
X0304690Y0292470D01*
X0306883Y0294664D01*
X0312496Y0294664D01*
X0315043Y0292116D01*
X0317090Y0294164D01*
X0319689Y0294164D01*
X0319689Y0287889D01*
X0319690Y0287889D01*
X0319690Y0281614D01*
X0322289Y0281614D01*
X0324336Y0283662D01*
X0326883Y0281114D01*
X0332496Y0281114D01*
X0336464Y0285083D01*
X0336464Y0290695D01*
X0332496Y0294664D01*
X0326883Y0294664D01*
X0324336Y0292116D01*
X0322289Y0294164D01*
X0319690Y0294164D01*
X0319690Y0287889D01*
X0319689Y0287889D01*
X0319689Y0281614D01*
X0317090Y0281614D01*
X0315043Y0283662D01*
X0312496Y0281114D01*
X0306883Y0281114D01*
X0305290Y0282708D01*
X0305290Y0275525D01*
X0304437Y0273467D01*
X0302862Y0271892D01*
X0286612Y0255642D01*
X0284553Y0254789D01*
X0274799Y0254789D01*
X0240107Y0213489D01*
X0270803Y0213489D01*
X0272862Y0212637D01*
X0280834Y0204664D01*
X0282496Y0204664D01*
X0284690Y0202470D01*
X0286883Y0204664D01*
X0292496Y0204664D01*
X0294690Y0202470D01*
X0296883Y0204664D01*
X0302496Y0204664D01*
X0304690Y0202470D01*
X0306883Y0204664D01*
X0312496Y0204664D01*
X0314690Y0202470D01*
X0316883Y0204664D01*
X0322496Y0204664D01*
X0324690Y0202470D01*
X0326883Y0204664D01*
X0332496Y0204664D01*
X0336464Y0200695D01*
X0336464Y0195083D01*
X0332496Y0191114D01*
X0326883Y0191114D01*
X0326190Y0191808D01*
X0326190Y0188081D01*
X0360200Y0154071D01*
X0361190Y0151682D01*
X0361190Y0061596D01*
X0360200Y0059207D01*
X0358371Y0057379D01*
X0333371Y0032379D01*
X0330982Y0031389D01*
X0322382Y0031389D01*
X0315382Y0024389D01*
X0345089Y0024389D01*
X0344448Y0025030D01*
X0342763Y0027949D01*
X0341890Y0031204D01*
X0341890Y0034574D01*
X0342763Y0037829D01*
X0344448Y0040748D01*
X0346831Y0043131D01*
X0349749Y0044816D01*
X0353004Y0045688D01*
X0356375Y0045688D01*
X0359630Y0044816D01*
X0362548Y0043131D01*
X0363230Y0042450D01*
X0364376Y0279475D01*
X0362548Y0277647D01*
X0359630Y0275962D01*
X0356375Y0275090D01*
X0353004Y0275090D01*
X0349749Y0275962D01*
X0346831Y0277647D01*
X0344448Y0280030D01*
X0342763Y0282949D01*
X0341890Y0286204D01*
X0341890Y0289574D01*
X0342763Y0292829D01*
X0344448Y0295748D01*
X0344922Y0296222D01*
X0035262Y0295176D01*
X0036616Y0292829D01*
X0037489Y0289574D01*
X0037489Y0286204D01*
X0037030Y0284493D01*
X0037628Y0285091D01*
X0040251Y0286605D01*
X0043176Y0287389D01*
X0046204Y0287389D01*
X0049128Y0286605D01*
X0051751Y0285091D01*
X0053892Y0282950D01*
X0055406Y0280328D01*
X0056190Y0277403D01*
X0056190Y0274375D01*
X0055406Y0271450D01*
X0054216Y0269389D01*
X0078190Y0269389D01*
X0078190Y0279182D01*
X0079179Y0281571D01*
X0081008Y0283399D01*
X0086008Y0288399D01*
X0088397Y0289389D01*
X0120982Y0289389D01*
X0123371Y0288399D01*
X0125200Y0286571D01*
X0133439Y0278332D01*
X0133973Y0280328D01*
X0135487Y0282950D01*
X0137628Y0285091D01*
X0140251Y0286605D01*
X0143176Y0287389D01*
X0146204Y0287389D01*
X0149128Y0286605D01*
X0151751Y0285091D01*
X0153892Y0282950D01*
X0155406Y0280328D01*
X0155941Y0278332D01*
X0166008Y0288399D01*
X0168397Y0289389D01*
X0180033Y0289389D01*
X0180315Y0289671D01*
X0183256Y0290889D01*
X0186438Y0290889D01*
X0189379Y0289671D01*
X0191629Y0287421D01*
X0192847Y0284480D01*
X0192847Y0281298D01*
X0191629Y0278357D01*
X0189379Y0276107D01*
X0186438Y0274889D01*
X0183256Y0274889D01*
X0180315Y0276107D01*
X0180033Y0276389D01*
X0172382Y0276389D01*
X0155200Y0259207D01*
X0153371Y0257379D01*
X0150982Y0256389D01*
X0145382Y0256389D01*
X0154200Y0247571D01*
X0155190Y0245182D01*
X0155190Y0235881D01*
X0155840Y0234311D01*
X0155840Y0231467D01*
X0154751Y0228839D01*
X0152740Y0226828D01*
X0150112Y0225739D01*
X0147267Y0225739D01*
X0144639Y0226828D01*
X0142628Y0228839D01*
X0141540Y0231467D01*
X0141540Y0234311D01*
X0142190Y0235881D01*
X0142190Y0241197D01*
X0126997Y0256389D01*
X0126190Y0256389D01*
X0126190Y0236006D01*
X0126490Y0235706D01*
X0126490Y0230072D01*
X0122506Y0226089D01*
X0116873Y0226089D01*
X0112890Y0230072D01*
X0112890Y0235706D01*
X0113190Y0236006D01*
X0113190Y0256389D01*
X0111116Y0256389D01*
X0110793Y0255611D01*
X0108768Y0253585D01*
X0106122Y0252489D01*
X0103257Y0252489D01*
X0100611Y0253585D01*
X0099336Y0254860D01*
X0099117Y0254641D01*
X0098420Y0254106D01*
X0097659Y0253667D01*
X0096848Y0253331D01*
X0095999Y0253104D01*
X0095129Y0252989D01*
X0094690Y0252989D01*
X0094690Y0262889D01*
X0094689Y0262889D01*
X0094689Y0252989D01*
X0094250Y0252989D01*
X0093380Y0253104D01*
X0092531Y0253331D01*
X0091720Y0253667D01*
X0090959Y0254106D01*
X0090262Y0254641D01*
X0090043Y0254860D01*
X0088768Y0253585D01*
X0086122Y0252489D01*
X0083257Y0252489D01*
X0080611Y0253585D01*
X0078586Y0255611D01*
X0078263Y0256389D01*
X0076190Y0256389D01*
X0076190Y0236006D01*
X0076490Y0235706D01*
X0076490Y0230072D01*
X0072506Y0226089D01*
X0066873Y0226089D01*
X0062890Y0230072D01*
X0062890Y0235706D01*
X0063190Y0236006D01*
X0063190Y0256389D01*
X0057382Y0256389D01*
X0042190Y0241197D01*
X0042190Y0235881D01*
X0042840Y0234311D01*
X0042840Y0231467D01*
X0041751Y0228839D01*
X0041190Y0228277D01*
X0041190Y0215581D01*
X0045200Y0211571D01*
X0046190Y0209182D01*
X0046190Y0206571D01*
X0046890Y0205871D01*
X0046890Y0199907D01*
X0042672Y0195689D01*
X0036707Y0195689D01*
X0032490Y0199907D01*
X0032490Y0205871D01*
X0032502Y0205884D01*
X0031008Y0207379D01*
X0029179Y0209207D01*
X0028190Y0211596D01*
X0028190Y0233182D01*
X0028540Y0234027D01*
X0028540Y0234311D01*
X0029190Y0235881D01*
X0029190Y0245182D01*
X0030179Y0247571D01*
X0047288Y0264680D01*
X0046204Y0264389D01*
X0043176Y0264389D01*
X0040251Y0265173D01*
X0037628Y0266687D01*
X0035487Y0268828D01*
X0033973Y0271450D01*
X0033190Y0274375D01*
X0033190Y0277403D01*
X0033514Y0278612D01*
X0032548Y0277647D01*
X0029630Y0275962D01*
X0026375Y0275090D01*
X0023004Y0275090D01*
X0019749Y0275962D01*
X0016831Y0277647D01*
X0016190Y0278288D01*
X0016190Y0042490D01*
X0016831Y0043131D01*
X0019749Y0044816D01*
X0023004Y0045688D01*
X0026375Y0045688D01*
X0029630Y0044816D01*
X0032548Y0043131D01*
X0034931Y0040748D01*
X0036616Y0037829D01*
X0037489Y0034574D01*
X0037489Y0031204D01*
X0036616Y0027949D01*
X0034931Y0025030D01*
X0036566Y0027861D02*
X0175525Y0027861D01*
X0170103Y0032859D02*
X0037489Y0032859D01*
X0036600Y0037858D02*
X0167890Y0037858D01*
X0170040Y0042856D02*
X0032823Y0042856D01*
X0028894Y0048889D02*
X0050485Y0048889D01*
X0051955Y0049498D01*
X0053081Y0050623D01*
X0053690Y0052093D01*
X0053690Y0071389D01*
X0058190Y0071389D01*
X0058190Y0068233D01*
X0058089Y0067290D01*
X0058190Y0066951D01*
X0058190Y0066596D01*
X0058552Y0065720D01*
X0058821Y0064810D01*
X0059043Y0064535D01*
X0059179Y0064207D01*
X0059850Y0063536D01*
X0060446Y0062799D01*
X0060757Y0062629D01*
X0061008Y0062379D01*
X0061884Y0062016D01*
X0062717Y0061562D01*
X0063069Y0061525D01*
X0063397Y0061389D01*
X0064345Y0061389D01*
X0065288Y0061289D01*
X0065628Y0061389D01*
X0065982Y0061389D01*
X0066859Y0061752D01*
X0067768Y0062020D01*
X0068044Y0062243D01*
X0068371Y0062379D01*
X0069042Y0063049D01*
X0069780Y0063645D01*
X0069949Y0063956D01*
X0070200Y0064207D01*
X0070563Y0065083D01*
X0071016Y0065916D01*
X0071054Y0066269D01*
X0071190Y0066596D01*
X0071190Y0067545D01*
X0071598Y0071389D01*
X0079172Y0071389D01*
X0080311Y0070917D01*
X0083084Y0070917D01*
X0085647Y0071979D01*
X0087608Y0073940D01*
X0088669Y0076502D01*
X0088669Y0079276D01*
X0087608Y0081838D01*
X0085647Y0083799D01*
X0083084Y0084861D01*
X0080311Y0084861D01*
X0079172Y0084389D01*
X0071190Y0084389D01*
X0071190Y0140939D01*
X0072516Y0141488D01*
X0074640Y0143612D01*
X0075790Y0146387D01*
X0075790Y0149391D01*
X0074640Y0152166D01*
X0072516Y0154290D01*
X0071190Y0154839D01*
X0071190Y0170197D01*
X0074290Y0173297D01*
X0074290Y0171457D01*
X0075386Y0168811D01*
X0077411Y0166785D01*
X0078190Y0166463D01*
X0078190Y0146596D01*
X0079179Y0144207D01*
X0094179Y0129207D01*
X0096008Y0127379D01*
X0098397Y0126389D01*
X0119813Y0126389D01*
X0120537Y0126089D01*
X0122297Y0126089D01*
X0131008Y0117379D01*
X0133397Y0116389D01*
X0133862Y0116389D01*
X0133925Y0116237D01*
X0135838Y0114324D01*
X0138337Y0113289D01*
X0141042Y0113289D01*
X0143541Y0114324D01*
X0145454Y0116237D01*
X0146490Y0118736D01*
X0146490Y0127042D01*
X0145454Y0129541D01*
X0143541Y0131454D01*
X0141042Y0132489D01*
X0138337Y0132489D01*
X0135838Y0131454D01*
X0135577Y0131194D01*
X0134290Y0132481D01*
X0134290Y0134242D01*
X0133400Y0136389D01*
X0135982Y0136389D01*
X0138371Y0137379D01*
X0140200Y0139207D01*
X0145200Y0144207D01*
X0146190Y0146596D01*
X0146190Y0148012D01*
X0146490Y0148736D01*
X0146490Y0157042D01*
X0145454Y0159541D01*
X0145290Y0159706D01*
X0145290Y0161372D01*
X0146490Y0162572D01*
X0146490Y0168206D01*
X0142506Y0172189D01*
X0136873Y0172189D01*
X0132890Y0168206D01*
X0132890Y0162572D01*
X0134090Y0161372D01*
X0134090Y0159706D01*
X0133925Y0159541D01*
X0132890Y0157042D01*
X0132890Y0156168D01*
X0132878Y0156191D01*
X0132295Y0156993D01*
X0131594Y0157694D01*
X0130791Y0158277D01*
X0129908Y0158727D01*
X0128965Y0159034D01*
X0127985Y0159189D01*
X0124690Y0159189D01*
X0124690Y0152889D01*
X0124689Y0152889D01*
X0115590Y0152889D01*
X0115590Y0152393D01*
X0115745Y0151414D01*
X0116051Y0150471D01*
X0116501Y0149587D01*
X0117084Y0148785D01*
X0117626Y0148243D01*
X0116125Y0146741D01*
X0115090Y0144242D01*
X0115090Y0141536D01*
X0115979Y0139389D01*
X0102382Y0139389D01*
X0101432Y0140339D01*
X0109741Y0140339D01*
X0112516Y0141488D01*
X0114640Y0143612D01*
X0115790Y0146387D01*
X0115790Y0149391D01*
X0114640Y0152166D01*
X0112516Y0154290D01*
X0111190Y0154839D01*
X0111190Y0165197D01*
X0113371Y0167379D01*
X0113390Y0167397D01*
X0113390Y0165389D01*
X0113390Y0162780D01*
X0117080Y0159089D01*
X0119689Y0159089D01*
X0119689Y0165389D01*
X0113390Y0165389D01*
X0119689Y0165389D01*
X0119689Y0165389D01*
X0119690Y0165389D01*
X0119690Y0165389D01*
X0125990Y0165389D01*
X0125990Y0162780D01*
X0122399Y0159189D01*
X0124689Y0159189D01*
X0124689Y0152889D01*
X0124689Y0152889D01*
X0115590Y0152889D01*
X0115590Y0153385D01*
X0115745Y0154364D01*
X0116051Y0155307D01*
X0116501Y0156191D01*
X0117084Y0156993D01*
X0117785Y0157694D01*
X0118588Y0158277D01*
X0119471Y0158727D01*
X0120414Y0159034D01*
X0120762Y0159089D01*
X0119690Y0159089D01*
X0119690Y0165389D01*
X0125990Y0165389D01*
X0125990Y0167999D01*
X0122299Y0171689D01*
X0119690Y0171689D01*
X0119690Y0165389D01*
X0119689Y0165389D01*
X0119689Y0171689D01*
X0117080Y0171689D01*
X0115626Y0170235D01*
X0116190Y0171596D01*
X0116190Y0175222D01*
X0118038Y0173374D01*
X0120537Y0172339D01*
X0128842Y0172339D01*
X0129566Y0172639D01*
X0149813Y0172639D01*
X0150537Y0172339D01*
X0158842Y0172339D01*
X0159566Y0172639D01*
X0159732Y0172639D01*
X0162121Y0173629D01*
X0183371Y0194879D01*
X0185200Y0196707D01*
X0186190Y0199096D01*
X0186190Y0215197D01*
X0194732Y0223739D01*
X0194862Y0223739D01*
X0197490Y0224828D01*
X0199501Y0226839D01*
X0200590Y0229467D01*
X0200590Y0232311D01*
X0199501Y0234939D01*
X0197490Y0236951D01*
X0194862Y0238039D01*
X0192017Y0238039D01*
X0189389Y0236951D01*
X0187378Y0234939D01*
X0187258Y0234650D01*
X0187179Y0234571D01*
X0174179Y0221571D01*
X0173690Y0220389D01*
X0173690Y0221022D01*
X0173990Y0221322D01*
X0173990Y0226956D01*
X0170006Y0230939D01*
X0164373Y0230939D01*
X0160390Y0226956D01*
X0160390Y0221322D01*
X0160690Y0221022D01*
X0160690Y0214579D01*
X0159908Y0214977D01*
X0158965Y0215284D01*
X0157985Y0215439D01*
X0154690Y0215439D01*
X0154690Y0209139D01*
X0154689Y0209139D01*
X0145590Y0209139D01*
X0145590Y0208643D01*
X0145745Y0207664D01*
X0146051Y0206721D01*
X0146501Y0205837D01*
X0147084Y0205035D01*
X0147626Y0204493D01*
X0146125Y0202991D01*
X0145090Y0200492D01*
X0145090Y0197786D01*
X0146125Y0195287D01*
X0147273Y0194139D01*
X0146125Y0192991D01*
X0145090Y0190492D01*
X0145090Y0187786D01*
X0145979Y0185639D01*
X0133400Y0185639D01*
X0134290Y0187786D01*
X0134290Y0190492D01*
X0133254Y0192991D01*
X0132106Y0194139D01*
X0133254Y0195287D01*
X0134290Y0197786D01*
X0134290Y0200492D01*
X0133254Y0202991D01*
X0132106Y0204139D01*
X0133254Y0205287D01*
X0134290Y0207786D01*
X0134290Y0210492D01*
X0133254Y0212991D01*
X0131341Y0214904D01*
X0128842Y0215939D01*
X0120537Y0215939D01*
X0119813Y0215639D01*
X0116490Y0215639D01*
X0116490Y0215706D01*
X0112506Y0219689D01*
X0106873Y0219689D01*
X0102890Y0215706D01*
X0102890Y0210072D01*
X0103190Y0209772D01*
X0103190Y0209389D01*
X0102806Y0209389D01*
X0102506Y0209689D01*
X0096873Y0209689D01*
X0092890Y0205706D01*
X0092890Y0200072D01*
X0096873Y0196089D01*
X0102506Y0196089D01*
X0102806Y0196389D01*
X0106573Y0196389D01*
X0106873Y0196089D01*
X0112506Y0196089D01*
X0115090Y0198672D01*
X0115090Y0197786D01*
X0116125Y0195287D01*
X0117273Y0194139D01*
X0116125Y0192991D01*
X0115090Y0190492D01*
X0115090Y0187786D01*
X0115571Y0186624D01*
X0112506Y0189689D01*
X0106873Y0189689D01*
X0104336Y0187152D01*
X0102299Y0189189D01*
X0099690Y0189189D01*
X0099690Y0182889D01*
X0099690Y0176589D01*
X0102299Y0176589D01*
X0103190Y0177480D01*
X0103190Y0175581D01*
X0099179Y0171571D01*
X0098190Y0169182D01*
X0098190Y0166596D01*
X0098190Y0154839D01*
X0096863Y0154290D01*
X0094739Y0152166D01*
X0093590Y0149391D01*
X0093590Y0148181D01*
X0091190Y0150581D01*
X0091190Y0166463D01*
X0091968Y0166785D01*
X0093993Y0168811D01*
X0095090Y0171457D01*
X0095090Y0174321D01*
X0093993Y0176968D01*
X0093072Y0177889D01*
X0093993Y0178811D01*
X0094247Y0179422D01*
X0097080Y0176589D01*
X0099689Y0176589D01*
X0099689Y0182889D01*
X0099690Y0182889D01*
X0099689Y0182889D01*
X0099689Y0189189D01*
X0097080Y0189189D01*
X0094247Y0186356D01*
X0093993Y0186968D01*
X0092718Y0188243D01*
X0092938Y0188462D01*
X0093472Y0189159D01*
X0093911Y0189919D01*
X0094248Y0190731D01*
X0094475Y0191579D01*
X0094590Y0192450D01*
X0094590Y0192889D01*
X0084690Y0192889D01*
X0084690Y0192889D01*
X0094590Y0192889D01*
X0094590Y0193328D01*
X0094475Y0194199D01*
X0094248Y0195047D01*
X0093911Y0195859D01*
X0093472Y0196619D01*
X0092938Y0197316D01*
X0092317Y0197937D01*
X0091620Y0198472D01*
X0090859Y0198911D01*
X0090048Y0199247D01*
X0089199Y0199474D01*
X0088329Y0199589D01*
X0084690Y0199589D01*
X0084690Y0192889D01*
X0084689Y0192889D01*
X0074790Y0192889D01*
X0074790Y0192450D01*
X0074904Y0191579D01*
X0075131Y0190731D01*
X0075468Y0189919D01*
X0075774Y0189389D01*
X0073397Y0189389D01*
X0071008Y0188399D01*
X0061008Y0178399D01*
X0059179Y0176571D01*
X0058190Y0174182D01*
X0058190Y0154839D01*
X0056863Y0154290D01*
X0054739Y0152166D01*
X0053590Y0149391D01*
X0053590Y0146387D01*
X0054739Y0143612D01*
X0056863Y0141488D01*
X0058190Y0140939D01*
X0058190Y0084389D01*
X0053690Y0084389D01*
X0053690Y0103685D01*
X0053081Y0105155D01*
X0051955Y0106280D01*
X0050485Y0106889D01*
X0043872Y0106889D01*
X0046890Y0109907D01*
X0046890Y0115871D01*
X0042672Y0120089D01*
X0036707Y0120089D01*
X0032490Y0115871D01*
X0032490Y0109907D01*
X0035507Y0106889D01*
X0028894Y0106889D01*
X0027424Y0106280D01*
X0026298Y0105155D01*
X0025690Y0103685D01*
X0025690Y0052093D01*
X0026298Y0050623D01*
X0027424Y0049498D01*
X0028894Y0048889D01*
X0025690Y0052853D02*
X0016190Y0052853D01*
X0016190Y0057852D02*
X0025690Y0057852D01*
X0025690Y0062850D02*
X0016190Y0062850D01*
X0016190Y0067849D02*
X0025690Y0067849D01*
X0025690Y0072847D02*
X0016190Y0072847D01*
X0016190Y0077846D02*
X0025690Y0077846D01*
X0025690Y0082844D02*
X0016190Y0082844D01*
X0016190Y0087843D02*
X0025690Y0087843D01*
X0025690Y0092841D02*
X0016190Y0092841D01*
X0016190Y0097840D02*
X0025690Y0097840D01*
X0025690Y0102838D02*
X0016190Y0102838D01*
X0016190Y0107837D02*
X0034559Y0107837D01*
X0032490Y0112835D02*
X0016190Y0112835D01*
X0016190Y0117834D02*
X0034452Y0117834D01*
X0044927Y0117834D02*
X0058190Y0117834D01*
X0058190Y0122832D02*
X0016190Y0122832D01*
X0016190Y0127831D02*
X0058190Y0127831D01*
X0058190Y0132830D02*
X0016190Y0132830D01*
X0016190Y0137828D02*
X0058190Y0137828D01*
X0055525Y0142827D02*
X0016190Y0142827D01*
X0016190Y0147825D02*
X0053590Y0147825D01*
X0055397Y0152824D02*
X0016190Y0152824D01*
X0016190Y0157822D02*
X0058190Y0157822D01*
X0058190Y0162821D02*
X0016190Y0162821D01*
X0016190Y0167819D02*
X0058190Y0167819D01*
X0058190Y0172818D02*
X0016190Y0172818D01*
X0016190Y0177816D02*
X0060424Y0177816D01*
X0064690Y0172889D02*
X0064690Y0147889D01*
X0064690Y0067889D01*
X0065753Y0077889D01*
X0081697Y0077889D01*
X0086601Y0082844D02*
X0102778Y0082844D01*
X0100710Y0077846D02*
X0088669Y0077846D01*
X0086515Y0072847D02*
X0102864Y0072847D01*
X0107682Y0077889D02*
X0123627Y0077889D01*
X0149690Y0077889D01*
X0163690Y0077846D02*
X0165454Y0077846D01*
X0163690Y0082844D02*
X0170452Y0082844D01*
X0170590Y0087843D02*
X0163690Y0087843D01*
X0163690Y0092841D02*
X0172988Y0092841D01*
X0179689Y0092841D02*
X0179690Y0092841D01*
X0186391Y0092841D02*
X0213190Y0092841D01*
X0213190Y0097840D02*
X0163690Y0097840D01*
X0163690Y0102838D02*
X0180548Y0102838D01*
X0184690Y0107889D02*
X0189690Y0107889D01*
X0184690Y0107889D02*
X0180940Y0111639D01*
X0180940Y0125389D01*
X0169690Y0136639D01*
X0169690Y0157889D01*
X0179690Y0167889D01*
X0179690Y0177889D01*
X0172890Y0177816D02*
X0166309Y0177816D01*
X0171307Y0182815D02*
X0173210Y0182815D01*
X0176306Y0187813D02*
X0184083Y0187813D01*
X0186565Y0192812D02*
X0181305Y0192812D01*
X0185657Y0197810D02*
X0190975Y0197810D01*
X0195386Y0202809D02*
X0186190Y0202809D01*
X0186190Y0207807D02*
X0199796Y0207807D01*
X0204207Y0212806D02*
X0186190Y0212806D01*
X0188797Y0217804D02*
X0208617Y0217804D01*
X0213027Y0222803D02*
X0193796Y0222803D01*
X0199900Y0227801D02*
X0217438Y0227801D01*
X0221848Y0232800D02*
X0200387Y0232800D01*
X0196194Y0238239D02*
X0193440Y0238239D01*
X0193440Y0244889D01*
X0193440Y0244889D01*
X0200090Y0244889D01*
X0200090Y0242135D01*
X0196194Y0238239D01*
X0195443Y0237798D02*
X0226259Y0237798D01*
X0230669Y0242797D02*
X0200090Y0242797D01*
X0200090Y0244889D02*
X0200090Y0247644D01*
X0196194Y0251539D01*
X0193440Y0251539D01*
X0193440Y0244889D01*
X0200090Y0244889D01*
X0199938Y0247795D02*
X0235080Y0247795D01*
X0239490Y0252794D02*
X0148977Y0252794D01*
X0153785Y0257792D02*
X0243901Y0257792D01*
X0248311Y0262791D02*
X0158784Y0262791D01*
X0163782Y0267789D02*
X0252722Y0267789D01*
X0257132Y0272788D02*
X0168781Y0272788D01*
X0169690Y0282889D02*
X0149690Y0262889D01*
X0139690Y0262889D01*
X0119690Y0282889D01*
X0089690Y0282889D01*
X0084690Y0277889D01*
X0084690Y0262889D01*
X0069690Y0262889D01*
X0069690Y0232889D01*
X0076490Y0232800D02*
X0083390Y0232800D01*
X0083390Y0232889D02*
X0083390Y0230280D01*
X0087080Y0226589D01*
X0089689Y0226589D01*
X0089689Y0232889D01*
X0083390Y0232889D01*
X0089689Y0232889D01*
X0089689Y0232889D01*
X0089690Y0232889D01*
X0089690Y0232889D01*
X0093390Y0232889D01*
X0099689Y0232889D01*
X0099689Y0232889D01*
X0089690Y0232889D01*
X0089690Y0226589D01*
X0092299Y0226589D01*
X0094690Y0228980D01*
X0097080Y0226589D01*
X0099689Y0226589D01*
X0099689Y0232889D01*
X0099690Y0232889D01*
X0099690Y0232889D01*
X0105990Y0232889D01*
X0105990Y0230280D01*
X0102299Y0226589D01*
X0099690Y0226589D01*
X0099690Y0232889D01*
X0105990Y0232889D01*
X0105990Y0235499D01*
X0102299Y0239189D01*
X0099690Y0239189D01*
X0099690Y0232889D01*
X0099689Y0232889D01*
X0099689Y0239189D01*
X0097080Y0239189D01*
X0094690Y0236799D01*
X0092299Y0239189D01*
X0089690Y0239189D01*
X0089690Y0232889D01*
X0089689Y0232889D01*
X0089689Y0239189D01*
X0087080Y0239189D01*
X0083390Y0235499D01*
X0083390Y0232889D01*
X0085868Y0227801D02*
X0074218Y0227801D01*
X0065161Y0227801D02*
X0054006Y0227801D01*
X0052444Y0226239D02*
X0056340Y0230135D01*
X0056340Y0232889D01*
X0049690Y0232889D01*
X0049690Y0232889D01*
X0056340Y0232889D01*
X0056340Y0235644D01*
X0052444Y0239539D01*
X0049690Y0239539D01*
X0049690Y0232889D01*
X0049690Y0226239D01*
X0052444Y0226239D01*
X0049689Y0226239D02*
X0049689Y0232889D01*
X0043040Y0232889D01*
X0043040Y0230135D01*
X0046935Y0226239D01*
X0049689Y0226239D01*
X0049689Y0227801D02*
X0049690Y0227801D01*
X0045373Y0227801D02*
X0041190Y0227801D01*
X0042840Y0232800D02*
X0043040Y0232800D01*
X0043040Y0232889D02*
X0049689Y0232889D01*
X0049689Y0232889D01*
X0049690Y0232889D01*
X0049689Y0232889D01*
X0049689Y0239539D01*
X0046935Y0239539D01*
X0043040Y0235644D01*
X0043040Y0232889D01*
X0049689Y0232800D02*
X0049690Y0232800D01*
X0049689Y0237798D02*
X0049690Y0237798D01*
X0045194Y0237798D02*
X0042190Y0237798D01*
X0043790Y0242797D02*
X0063190Y0242797D01*
X0063190Y0247795D02*
X0048788Y0247795D01*
X0053787Y0252794D02*
X0063190Y0252794D01*
X0069690Y0262889D02*
X0054690Y0262889D01*
X0035690Y0243889D01*
X0035690Y0232889D01*
X0034690Y0231889D01*
X0034690Y0212889D01*
X0039690Y0207889D01*
X0039690Y0202889D01*
X0044793Y0197810D02*
X0076935Y0197810D01*
X0077062Y0197937D02*
X0076441Y0197316D01*
X0075907Y0196619D01*
X0075468Y0195859D01*
X0075131Y0195047D01*
X0074904Y0194199D01*
X0074790Y0193328D01*
X0074790Y0192889D01*
X0084689Y0192889D01*
X0084689Y0192889D01*
X0084689Y0199589D01*
X0081050Y0199589D01*
X0080180Y0199474D01*
X0079331Y0199247D01*
X0078520Y0198911D01*
X0077759Y0198472D01*
X0077062Y0197937D01*
X0074790Y0192812D02*
X0016190Y0192812D01*
X0016190Y0187813D02*
X0070421Y0187813D01*
X0074690Y0182889D02*
X0064690Y0172889D01*
X0071190Y0167819D02*
X0076377Y0167819D01*
X0078190Y0162821D02*
X0071190Y0162821D01*
X0071190Y0157822D02*
X0078190Y0157822D01*
X0078190Y0152824D02*
X0073982Y0152824D01*
X0075790Y0147825D02*
X0078190Y0147825D01*
X0080560Y0142827D02*
X0073854Y0142827D01*
X0071190Y0137828D02*
X0085558Y0137828D01*
X0090557Y0132830D02*
X0071190Y0132830D01*
X0071190Y0127831D02*
X0095555Y0127831D01*
X0094179Y0129207D02*
X0094179Y0129207D01*
X0099690Y0132889D02*
X0124690Y0132889D01*
X0134690Y0122889D01*
X0139690Y0122889D01*
X0146490Y0122832D02*
X0158592Y0122832D01*
X0158139Y0120701D02*
X0156128Y0118689D01*
X0155040Y0116061D01*
X0155040Y0113217D01*
X0156128Y0110589D01*
X0158139Y0108578D01*
X0160767Y0107489D01*
X0163612Y0107489D01*
X0166240Y0108578D01*
X0168251Y0110589D01*
X0169340Y0113217D01*
X0169340Y0116061D01*
X0168251Y0118689D01*
X0166240Y0120701D01*
X0163612Y0121789D01*
X0160767Y0121789D01*
X0158139Y0120701D01*
X0155774Y0117834D02*
X0146116Y0117834D01*
X0155197Y0112835D02*
X0071190Y0112835D01*
X0071190Y0107837D02*
X0159927Y0107837D01*
X0164452Y0107837D02*
X0175549Y0107837D01*
X0174440Y0112835D02*
X0169182Y0112835D01*
X0168605Y0117834D02*
X0174440Y0117834D01*
X0174304Y0122832D02*
X0165787Y0122832D01*
X0162190Y0122832D02*
X0162189Y0122832D01*
X0162189Y0127831D02*
X0162190Y0127831D01*
X0162189Y0132830D02*
X0162190Y0132830D01*
X0163190Y0137828D02*
X0138821Y0137828D01*
X0134290Y0132830D02*
X0156975Y0132830D01*
X0155540Y0127831D02*
X0146163Y0127831D01*
X0130552Y0117834D02*
X0071190Y0117834D01*
X0071190Y0122832D02*
X0125554Y0122832D01*
X0124690Y0142889D02*
X0134690Y0142889D01*
X0139690Y0147889D01*
X0139690Y0152889D01*
X0146490Y0152824D02*
X0163190Y0152824D01*
X0163190Y0147825D02*
X0146190Y0147825D01*
X0143819Y0142827D02*
X0163190Y0142827D01*
X0179690Y0139139D02*
X0189690Y0129139D01*
X0189690Y0117889D01*
X0199690Y0117889D02*
X0199690Y0131639D01*
X0189690Y0141639D01*
X0189690Y0147889D01*
X0194690Y0155306D02*
X0193541Y0156454D01*
X0191042Y0157489D01*
X0188337Y0157489D01*
X0185838Y0156454D01*
X0184690Y0155306D01*
X0183541Y0156454D01*
X0181042Y0157489D01*
X0178482Y0157489D01*
X0185200Y0164207D01*
X0186190Y0166596D01*
X0186190Y0169179D01*
X0188337Y0168289D01*
X0191042Y0168289D01*
X0193541Y0169324D01*
X0194690Y0170472D01*
X0195838Y0169324D01*
X0198337Y0168289D01*
X0201042Y0168289D01*
X0203541Y0169324D01*
X0204690Y0170472D01*
X0205838Y0169324D01*
X0208337Y0168289D01*
X0211042Y0168289D01*
X0213541Y0169324D01*
X0214690Y0170472D01*
X0215838Y0169324D01*
X0218337Y0168289D01*
X0221042Y0168289D01*
X0223541Y0169324D01*
X0224690Y0170472D01*
X0225838Y0169324D01*
X0228337Y0168289D01*
X0231042Y0168289D01*
X0233541Y0169324D01*
X0234690Y0170472D01*
X0235838Y0169324D01*
X0238337Y0168289D01*
X0241042Y0168289D01*
X0243541Y0169324D01*
X0244690Y0170472D01*
X0245838Y0169324D01*
X0248337Y0168289D01*
X0251042Y0168289D01*
X0253541Y0169324D01*
X0255454Y0171237D01*
X0256490Y0173736D01*
X0256490Y0182042D01*
X0255454Y0184541D01*
X0253541Y0186454D01*
X0251042Y0187489D01*
X0248337Y0187489D01*
X0245838Y0186454D01*
X0244690Y0185306D01*
X0243541Y0186454D01*
X0241042Y0187489D01*
X0238337Y0187489D01*
X0235838Y0186454D01*
X0235290Y0185906D01*
X0235290Y0195569D01*
X0242009Y0202289D01*
X0254509Y0202289D01*
X0252915Y0200695D01*
X0252915Y0195083D01*
X0256883Y0191114D01*
X0262496Y0191114D01*
X0264690Y0193308D01*
X0266883Y0191114D01*
X0272496Y0191114D01*
X0274690Y0193308D01*
X0276883Y0191114D01*
X0282496Y0191114D01*
X0284690Y0193308D01*
X0286883Y0191114D01*
X0292496Y0191114D01*
X0293190Y0191808D01*
X0293190Y0176596D01*
X0294179Y0174207D01*
X0296008Y0172379D01*
X0313997Y0154389D01*
X0307806Y0154389D01*
X0307506Y0154689D01*
X0301873Y0154689D01*
X0298451Y0151267D01*
X0298254Y0151741D01*
X0296341Y0153654D01*
X0293842Y0154689D01*
X0285537Y0154689D01*
X0284813Y0154389D01*
X0283397Y0154389D01*
X0281008Y0153399D01*
X0279179Y0151571D01*
X0269179Y0141571D01*
X0268190Y0139182D01*
X0268190Y0131006D01*
X0267890Y0130706D01*
X0267890Y0125072D01*
X0271873Y0121089D01*
X0277506Y0121089D01*
X0280928Y0124511D01*
X0281125Y0124037D01*
X0283038Y0122124D01*
X0285537Y0121089D01*
X0290855Y0121089D01*
X0290090Y0119242D01*
X0290090Y0116536D01*
X0291125Y0114037D01*
X0292273Y0112889D01*
X0291125Y0111741D01*
X0290090Y0109242D01*
X0290090Y0106536D01*
X0291125Y0104037D01*
X0292626Y0102536D01*
X0292084Y0101993D01*
X0291501Y0101191D01*
X0291051Y0100307D01*
X0290745Y0099364D01*
X0290590Y0098385D01*
X0290590Y0097889D01*
X0290590Y0097393D01*
X0290745Y0096414D01*
X0290899Y0095939D01*
X0289373Y0095939D01*
X0285390Y0091956D01*
X0285390Y0086322D01*
X0289373Y0082339D01*
X0290090Y0082339D01*
X0290090Y0081536D01*
X0291125Y0079037D01*
X0292273Y0077889D01*
X0291125Y0076741D01*
X0290090Y0074242D01*
X0290090Y0072106D01*
X0287506Y0074689D01*
X0281873Y0074689D01*
X0281573Y0074389D01*
X0278400Y0074389D01*
X0279290Y0076536D01*
X0279290Y0079242D01*
X0278254Y0081741D01*
X0276341Y0083654D01*
X0276327Y0083660D01*
X0278990Y0086322D01*
X0278990Y0091956D01*
X0275006Y0095939D01*
X0274582Y0095939D01*
X0272121Y0098399D01*
X0269732Y0099389D01*
X0252382Y0099389D01*
X0250657Y0101114D01*
X0251037Y0101114D01*
X0251701Y0101389D01*
X0271573Y0101389D01*
X0271873Y0101089D01*
X0277506Y0101089D01*
X0281490Y0105072D01*
X0281490Y0110706D01*
X0277506Y0114689D01*
X0271873Y0114689D01*
X0271573Y0114389D01*
X0255573Y0114389D01*
X0256464Y0116541D01*
X0256464Y0119237D01*
X0256190Y0119900D01*
X0256190Y0143012D01*
X0256490Y0143736D01*
X0256490Y0152042D01*
X0255454Y0154541D01*
X0253541Y0156454D01*
X0251042Y0157489D01*
X0248337Y0157489D01*
X0245838Y0156454D01*
X0244690Y0155306D01*
X0243541Y0156454D01*
X0241042Y0157489D01*
X0238337Y0157489D01*
X0235838Y0156454D01*
X0234690Y0155306D01*
X0233541Y0156454D01*
X0231042Y0157489D01*
X0228337Y0157489D01*
X0225838Y0156454D01*
X0224690Y0155306D01*
X0223541Y0156454D01*
X0221042Y0157489D01*
X0218337Y0157489D01*
X0215838Y0156454D01*
X0214336Y0154952D01*
X0213794Y0155494D01*
X0212991Y0156077D01*
X0212108Y0156527D01*
X0211165Y0156834D01*
X0210185Y0156989D01*
X0209690Y0156989D01*
X0209690Y0147889D01*
X0209689Y0147889D01*
X0209689Y0156989D01*
X0209194Y0156989D01*
X0208214Y0156834D01*
X0207271Y0156527D01*
X0206388Y0156077D01*
X0205585Y0155494D01*
X0205043Y0154952D01*
X0203541Y0156454D01*
X0201042Y0157489D01*
X0198337Y0157489D01*
X0195838Y0156454D01*
X0194690Y0155306D01*
X0199690Y0147889D02*
X0199690Y0142889D01*
X0209690Y0132889D01*
X0209690Y0117889D01*
X0219690Y0117889D02*
X0219690Y0147889D01*
X0229690Y0147889D02*
X0229690Y0117889D01*
X0239690Y0117889D02*
X0239690Y0147889D01*
X0249690Y0147889D02*
X0249690Y0117889D01*
X0256464Y0117834D02*
X0290090Y0117834D01*
X0292219Y0112835D02*
X0279360Y0112835D01*
X0281490Y0107837D02*
X0290090Y0107837D01*
X0292323Y0102838D02*
X0279256Y0102838D01*
X0274690Y0107889D02*
X0249690Y0107889D01*
X0239690Y0107889D02*
X0239690Y0102889D01*
X0249690Y0092889D01*
X0268440Y0092889D01*
X0272190Y0089139D01*
X0278990Y0087843D02*
X0285390Y0087843D01*
X0288868Y0082844D02*
X0277151Y0082844D01*
X0279290Y0077846D02*
X0292230Y0077846D01*
X0290090Y0072847D02*
X0289348Y0072847D01*
X0284690Y0067889D02*
X0269690Y0067889D01*
X0264690Y0067889D01*
X0259690Y0062889D01*
X0259690Y0042889D01*
X0254690Y0037889D01*
X0249690Y0047889D02*
X0239690Y0057889D01*
X0234690Y0057889D01*
X0243921Y0062850D02*
X0253190Y0062850D01*
X0253190Y0057852D02*
X0248919Y0057852D01*
X0252190Y0067889D02*
X0234690Y0067889D01*
X0243790Y0067889D01*
X0243790Y0068385D01*
X0243634Y0069364D01*
X0243328Y0070307D01*
X0242878Y0071191D01*
X0242295Y0071993D01*
X0241594Y0072694D01*
X0240791Y0073277D01*
X0239908Y0073727D01*
X0238965Y0074034D01*
X0237985Y0074189D01*
X0234690Y0074189D01*
X0234690Y0067889D01*
X0234689Y0072847D02*
X0234690Y0072847D01*
X0234263Y0077846D02*
X0245116Y0077846D01*
X0242890Y0082844D02*
X0236490Y0082844D01*
X0236190Y0087843D02*
X0245027Y0087843D01*
X0249690Y0082889D02*
X0264690Y0082889D01*
X0269690Y0077889D01*
X0260455Y0072847D02*
X0241383Y0072847D01*
X0243790Y0067849D02*
X0255457Y0067849D01*
X0252190Y0067889D02*
X0258440Y0074139D01*
X0269690Y0057889D02*
X0274690Y0057889D01*
X0284690Y0047889D01*
X0299690Y0047889D01*
X0299690Y0062889D01*
X0299690Y0072889D02*
X0309690Y0072889D01*
X0319690Y0062889D01*
X0319690Y0047889D01*
X0319690Y0037889D02*
X0329690Y0037889D01*
X0354690Y0062889D01*
X0354690Y0150389D01*
X0319690Y0185389D01*
X0319690Y0197889D01*
X0324351Y0202809D02*
X0325028Y0202809D01*
X0315028Y0202809D02*
X0314351Y0202809D01*
X0309690Y0197889D02*
X0309690Y0181639D01*
X0344690Y0146639D01*
X0344690Y0111639D01*
X0334690Y0101639D01*
X0324690Y0107889D02*
X0324690Y0082889D01*
X0314690Y0082889D02*
X0314689Y0082889D01*
X0314689Y0091989D01*
X0314194Y0091989D01*
X0313214Y0091834D01*
X0312271Y0091527D01*
X0311388Y0091077D01*
X0310585Y0090494D01*
X0309884Y0089793D01*
X0309301Y0088991D01*
X0308851Y0088107D01*
X0308545Y0087164D01*
X0308416Y0086351D01*
X0308254Y0086741D01*
X0306341Y0088654D01*
X0303842Y0089689D01*
X0301683Y0089689D01*
X0299403Y0091589D01*
X0299689Y0091589D01*
X0299689Y0097889D01*
X0290590Y0097889D01*
X0299689Y0097889D01*
X0299689Y0097889D01*
X0299690Y0097889D01*
X0299690Y0097889D01*
X0308790Y0097889D01*
X0308790Y0097922D01*
X0311873Y0094839D01*
X0317506Y0094839D01*
X0318190Y0095522D01*
X0318190Y0090933D01*
X0317991Y0091077D01*
X0317108Y0091527D01*
X0316165Y0091834D01*
X0315185Y0091989D01*
X0314690Y0091989D01*
X0314690Y0082889D01*
X0299690Y0097889D01*
X0308790Y0097889D01*
X0308790Y0097393D01*
X0308634Y0096414D01*
X0308328Y0095471D01*
X0307878Y0094587D01*
X0307295Y0093785D01*
X0306594Y0093084D01*
X0305791Y0092501D01*
X0304908Y0092051D01*
X0303965Y0091744D01*
X0302985Y0091589D01*
X0299690Y0091589D01*
X0299690Y0097889D01*
X0299689Y0097840D02*
X0299690Y0097840D01*
X0299689Y0092841D02*
X0299690Y0092841D01*
X0306260Y0092841D02*
X0318190Y0092841D01*
X0314690Y0087843D02*
X0314689Y0087843D01*
X0308765Y0087843D02*
X0307152Y0087843D01*
X0299690Y0082889D02*
X0292190Y0089139D01*
X0286275Y0092841D02*
X0278104Y0092841D01*
X0272681Y0097840D02*
X0290590Y0097840D01*
X0299690Y0107889D02*
X0308440Y0107889D01*
X0314690Y0101639D01*
X0308872Y0097840D02*
X0308790Y0097840D01*
X0324690Y0107889D02*
X0317190Y0115389D01*
X0314690Y0115389D01*
X0307190Y0117889D02*
X0317190Y0127889D01*
X0319690Y0127889D01*
X0307190Y0117889D02*
X0299690Y0117889D01*
X0304690Y0127889D02*
X0289690Y0127889D01*
X0282329Y0122832D02*
X0279250Y0122832D01*
X0274690Y0127889D02*
X0274690Y0137889D01*
X0284690Y0147889D01*
X0289690Y0147889D01*
X0297172Y0152824D02*
X0300007Y0152824D01*
X0304690Y0147889D02*
X0319690Y0147889D01*
X0310564Y0157822D02*
X0178815Y0157822D01*
X0183813Y0162821D02*
X0305566Y0162821D01*
X0300567Y0167819D02*
X0186190Y0167819D01*
X0173190Y0172818D02*
X0160163Y0172818D01*
X0158440Y0179139D02*
X0154690Y0179139D01*
X0124690Y0179139D01*
X0124690Y0189139D01*
X0133329Y0192812D02*
X0146051Y0192812D01*
X0145090Y0187813D02*
X0134290Y0187813D01*
X0134290Y0197810D02*
X0145090Y0197810D01*
X0146049Y0202809D02*
X0133330Y0202809D01*
X0134290Y0207807D02*
X0145722Y0207807D01*
X0145590Y0209139D02*
X0154689Y0209139D01*
X0154689Y0209139D01*
X0154689Y0215439D01*
X0151394Y0215439D01*
X0150414Y0215284D01*
X0149471Y0214977D01*
X0148588Y0214527D01*
X0147785Y0213944D01*
X0147084Y0213243D01*
X0146501Y0212441D01*
X0146051Y0211557D01*
X0145745Y0210614D01*
X0145590Y0209635D01*
X0145590Y0209139D01*
X0146766Y0212806D02*
X0133331Y0212806D01*
X0124690Y0209139D02*
X0109690Y0209139D01*
X0109690Y0212889D01*
X0109690Y0202889D01*
X0099690Y0202889D01*
X0092890Y0202809D02*
X0046890Y0202809D01*
X0046190Y0207807D02*
X0085862Y0207807D01*
X0087080Y0206589D02*
X0089689Y0206589D01*
X0089689Y0212889D01*
X0083390Y0212889D01*
X0083390Y0210280D01*
X0087080Y0206589D01*
X0089690Y0206589D02*
X0092299Y0206589D01*
X0095990Y0210280D01*
X0095990Y0212889D01*
X0089690Y0212889D01*
X0089690Y0212889D01*
X0095990Y0212889D01*
X0095990Y0215499D01*
X0092299Y0219189D01*
X0089690Y0219189D01*
X0089690Y0212889D01*
X0089690Y0206589D01*
X0089689Y0207807D02*
X0089690Y0207807D01*
X0093517Y0207807D02*
X0094991Y0207807D01*
X0095990Y0212806D02*
X0102890Y0212806D01*
X0104988Y0217804D02*
X0093684Y0217804D01*
X0089690Y0217804D02*
X0089689Y0217804D01*
X0089689Y0219189D02*
X0087080Y0219189D01*
X0083390Y0215499D01*
X0083390Y0212889D01*
X0089689Y0212889D01*
X0089689Y0212889D01*
X0089690Y0212889D01*
X0089689Y0212889D01*
X0089689Y0219189D01*
X0085695Y0217804D02*
X0041190Y0217804D01*
X0041190Y0222803D02*
X0160390Y0222803D01*
X0160690Y0217804D02*
X0114391Y0217804D01*
X0115161Y0227801D02*
X0103511Y0227801D01*
X0099690Y0227801D02*
X0099689Y0227801D01*
X0095868Y0227801D02*
X0093511Y0227801D01*
X0089690Y0227801D02*
X0089689Y0227801D01*
X0089689Y0232800D02*
X0089690Y0232800D01*
X0089689Y0237798D02*
X0089690Y0237798D01*
X0093690Y0237798D02*
X0095689Y0237798D01*
X0099689Y0237798D02*
X0099690Y0237798D01*
X0103690Y0237798D02*
X0113190Y0237798D01*
X0113190Y0242797D02*
X0076190Y0242797D01*
X0076190Y0247795D02*
X0113190Y0247795D01*
X0113190Y0252794D02*
X0106857Y0252794D01*
X0102522Y0252794D02*
X0086857Y0252794D01*
X0082522Y0252794D02*
X0076190Y0252794D01*
X0076190Y0237798D02*
X0085689Y0237798D01*
X0099689Y0232800D02*
X0099690Y0232800D01*
X0105990Y0232800D02*
X0112890Y0232800D01*
X0119690Y0232889D02*
X0119690Y0262889D01*
X0104690Y0262889D01*
X0111116Y0269389D02*
X0110793Y0270168D01*
X0108768Y0272193D01*
X0106122Y0273289D01*
X0103257Y0273289D01*
X0100611Y0272193D01*
X0099336Y0270918D01*
X0099117Y0271137D01*
X0098420Y0271672D01*
X0097659Y0272111D01*
X0096848Y0272447D01*
X0095999Y0272674D01*
X0095129Y0272789D01*
X0094690Y0272789D01*
X0094690Y0262889D01*
X0094689Y0262889D01*
X0094689Y0272789D01*
X0094250Y0272789D01*
X0093380Y0272674D01*
X0092531Y0272447D01*
X0091720Y0272111D01*
X0091190Y0271805D01*
X0091190Y0275197D01*
X0092382Y0276389D01*
X0116997Y0276389D01*
X0123997Y0269389D01*
X0111116Y0269389D01*
X0107332Y0272788D02*
X0120598Y0272788D01*
X0128986Y0282785D02*
X0135392Y0282785D01*
X0123988Y0287783D02*
X0165391Y0287783D01*
X0169690Y0282889D02*
X0184847Y0282889D01*
X0191266Y0287783D02*
X0197141Y0287783D01*
X0197167Y0287910D02*
X0197032Y0287234D01*
X0197032Y0282889D01*
X0197032Y0278544D01*
X0197167Y0277868D01*
X0197430Y0277231D01*
X0197813Y0276658D01*
X0198301Y0276170D01*
X0198874Y0275787D01*
X0199511Y0275524D01*
X0200187Y0275389D01*
X0204532Y0275389D01*
X0204532Y0282889D01*
X0204532Y0282889D01*
X0197032Y0282889D01*
X0204532Y0282889D01*
X0204532Y0282889D01*
X0204532Y0275389D01*
X0208877Y0275389D01*
X0209553Y0275524D01*
X0210190Y0275787D01*
X0210763Y0276170D01*
X0211251Y0276658D01*
X0211634Y0277231D01*
X0211898Y0277868D01*
X0212032Y0278544D01*
X0212032Y0282889D01*
X0204532Y0282889D01*
X0204532Y0282889D01*
X0204532Y0290389D01*
X0200187Y0290389D01*
X0199511Y0290255D01*
X0198874Y0289991D01*
X0198301Y0289608D01*
X0197813Y0289120D01*
X0197430Y0288547D01*
X0197167Y0287910D01*
X0197032Y0282785D02*
X0192847Y0282785D01*
X0191058Y0277786D02*
X0197200Y0277786D01*
X0204532Y0277786D02*
X0204532Y0277786D01*
X0204532Y0282785D02*
X0204532Y0282785D01*
X0204532Y0282889D02*
X0212032Y0282889D01*
X0212032Y0287234D01*
X0211898Y0287910D01*
X0211634Y0288547D01*
X0211251Y0289120D01*
X0210763Y0289608D01*
X0210190Y0289991D01*
X0209553Y0290255D01*
X0208877Y0290389D01*
X0204532Y0290389D01*
X0204532Y0282889D01*
X0204532Y0282889D01*
X0204532Y0287783D02*
X0204532Y0287783D01*
X0211923Y0287783D02*
X0252915Y0287783D01*
X0255213Y0282785D02*
X0212032Y0282785D01*
X0211864Y0277786D02*
X0261879Y0277786D01*
X0264166Y0282785D02*
X0265213Y0282785D01*
X0274166Y0282785D02*
X0275213Y0282785D01*
X0275001Y0292782D02*
X0274378Y0292782D01*
X0265001Y0292782D02*
X0264378Y0292782D01*
X0255001Y0292782D02*
X0036629Y0292782D01*
X0037489Y0287783D02*
X0085391Y0287783D01*
X0080393Y0282785D02*
X0053987Y0282785D01*
X0056087Y0277786D02*
X0078190Y0277786D01*
X0078190Y0272788D02*
X0055764Y0272788D01*
X0045399Y0262791D02*
X0016190Y0262791D01*
X0016190Y0257792D02*
X0040400Y0257792D01*
X0035402Y0252794D02*
X0016190Y0252794D01*
X0016190Y0247795D02*
X0030403Y0247795D01*
X0029190Y0242797D02*
X0016190Y0242797D01*
X0016190Y0237798D02*
X0029190Y0237798D01*
X0028190Y0232800D02*
X0016190Y0232800D01*
X0016190Y0227801D02*
X0028190Y0227801D01*
X0028190Y0222803D02*
X0016190Y0222803D01*
X0016190Y0217804D02*
X0028190Y0217804D01*
X0028190Y0212806D02*
X0016190Y0212806D01*
X0016190Y0207807D02*
X0030579Y0207807D01*
X0032490Y0202809D02*
X0016190Y0202809D01*
X0016190Y0197810D02*
X0034586Y0197810D01*
X0043965Y0212806D02*
X0083390Y0212806D01*
X0089689Y0212806D02*
X0089690Y0212806D01*
X0092444Y0197810D02*
X0095152Y0197810D01*
X0094590Y0192812D02*
X0116051Y0192812D01*
X0115090Y0187813D02*
X0114382Y0187813D01*
X0109690Y0182889D02*
X0109690Y0172889D01*
X0104690Y0167889D01*
X0104690Y0147889D01*
X0113854Y0142827D02*
X0115090Y0142827D01*
X0115790Y0147825D02*
X0117209Y0147825D01*
X0115590Y0152824D02*
X0113982Y0152824D01*
X0111190Y0157822D02*
X0117961Y0157822D01*
X0119689Y0162821D02*
X0119690Y0162821D01*
X0119689Y0167819D02*
X0119690Y0167819D01*
X0125990Y0167819D02*
X0132890Y0167819D01*
X0132890Y0162821D02*
X0125990Y0162821D01*
X0124689Y0157822D02*
X0124690Y0157822D01*
X0131418Y0157822D02*
X0133213Y0157822D01*
X0146166Y0157822D02*
X0163190Y0157822D01*
X0165429Y0162821D02*
X0146490Y0162821D01*
X0146490Y0167819D02*
X0170427Y0167819D01*
X0158440Y0179139D02*
X0179690Y0200389D01*
X0179690Y0217889D01*
X0192690Y0230889D01*
X0193440Y0230889D01*
X0191436Y0237798D02*
X0155190Y0237798D01*
X0155190Y0242797D02*
X0160890Y0242797D01*
X0160890Y0241530D02*
X0160890Y0244139D01*
X0167189Y0244139D01*
X0167189Y0244139D01*
X0160890Y0244139D01*
X0160890Y0246749D01*
X0164580Y0250439D01*
X0167189Y0250439D01*
X0167189Y0244139D01*
X0167190Y0244139D01*
X0167190Y0244139D01*
X0173490Y0244139D01*
X0173490Y0246749D01*
X0169799Y0250439D01*
X0167190Y0250439D01*
X0167190Y0244139D01*
X0173490Y0244139D01*
X0173490Y0241530D01*
X0169799Y0237839D01*
X0167190Y0237839D01*
X0167190Y0244139D01*
X0167189Y0244139D01*
X0167189Y0237839D01*
X0164580Y0237839D01*
X0160890Y0241530D01*
X0167189Y0242797D02*
X0167190Y0242797D01*
X0167189Y0247795D02*
X0167190Y0247795D01*
X0161936Y0247795D02*
X0153976Y0247795D01*
X0148690Y0243889D02*
X0129690Y0262889D01*
X0119690Y0262889D01*
X0126190Y0252794D02*
X0130592Y0252794D01*
X0126190Y0247795D02*
X0135591Y0247795D01*
X0140589Y0242797D02*
X0126190Y0242797D01*
X0126190Y0237798D02*
X0130194Y0237798D01*
X0131935Y0239539D02*
X0128040Y0235644D01*
X0128040Y0232889D01*
X0128040Y0230135D01*
X0131935Y0226239D01*
X0134689Y0226239D01*
X0134689Y0232889D01*
X0128040Y0232889D01*
X0134689Y0232889D01*
X0134689Y0232889D01*
X0134690Y0232889D01*
X0134690Y0232889D01*
X0141340Y0232889D01*
X0141340Y0230135D01*
X0137444Y0226239D01*
X0134690Y0226239D01*
X0134690Y0232889D01*
X0141340Y0232889D01*
X0141340Y0235644D01*
X0137444Y0239539D01*
X0134690Y0239539D01*
X0134690Y0232889D01*
X0134689Y0232889D01*
X0134689Y0239539D01*
X0131935Y0239539D01*
X0134689Y0237798D02*
X0134690Y0237798D01*
X0139185Y0237798D02*
X0142190Y0237798D01*
X0141540Y0232800D02*
X0141340Y0232800D01*
X0143666Y0227801D02*
X0139006Y0227801D01*
X0134690Y0227801D02*
X0134689Y0227801D01*
X0130373Y0227801D02*
X0124218Y0227801D01*
X0126490Y0232800D02*
X0128040Y0232800D01*
X0134689Y0232800D02*
X0134690Y0232800D01*
X0148690Y0232889D02*
X0148690Y0243889D01*
X0155840Y0232800D02*
X0185408Y0232800D01*
X0180409Y0227801D02*
X0173144Y0227801D01*
X0173990Y0222803D02*
X0175411Y0222803D01*
X0167190Y0224139D02*
X0167190Y0206639D01*
X0159690Y0199139D01*
X0154690Y0199139D01*
X0154689Y0212806D02*
X0154690Y0212806D01*
X0153713Y0227801D02*
X0161235Y0227801D01*
X0173490Y0242797D02*
X0186790Y0242797D01*
X0186790Y0242135D02*
X0186790Y0244889D01*
X0193439Y0244889D01*
X0193439Y0244889D01*
X0186790Y0244889D01*
X0186790Y0247644D01*
X0190685Y0251539D01*
X0193439Y0251539D01*
X0193439Y0244889D01*
X0193440Y0244889D01*
X0193439Y0244889D01*
X0193439Y0238239D01*
X0190685Y0238239D01*
X0186790Y0242135D01*
X0186941Y0247795D02*
X0172443Y0247795D01*
X0193439Y0247795D02*
X0193440Y0247795D01*
X0193439Y0242797D02*
X0193440Y0242797D01*
X0160393Y0282785D02*
X0153987Y0282785D01*
X0102047Y0272788D02*
X0095138Y0272788D01*
X0094690Y0272788D02*
X0094689Y0272788D01*
X0094241Y0272788D02*
X0091190Y0272788D01*
X0094689Y0267789D02*
X0094690Y0267789D01*
X0094689Y0262791D02*
X0094690Y0262791D01*
X0094689Y0257792D02*
X0094690Y0257792D01*
X0063190Y0237798D02*
X0054185Y0237798D01*
X0056340Y0232800D02*
X0062890Y0232800D01*
X0084689Y0197810D02*
X0084690Y0197810D01*
X0093148Y0187813D02*
X0095704Y0187813D01*
X0099689Y0187813D02*
X0099690Y0187813D01*
X0103675Y0187813D02*
X0104997Y0187813D01*
X0099689Y0182815D02*
X0099690Y0182815D01*
X0099689Y0177816D02*
X0099690Y0177816D01*
X0095853Y0177816D02*
X0093145Y0177816D01*
X0095090Y0172818D02*
X0100426Y0172818D01*
X0098190Y0167819D02*
X0093002Y0167819D01*
X0091190Y0162821D02*
X0098190Y0162821D01*
X0098190Y0157822D02*
X0091190Y0157822D01*
X0091190Y0152824D02*
X0095397Y0152824D01*
X0084690Y0147889D02*
X0099690Y0132889D01*
X0084690Y0147889D02*
X0084690Y0172889D01*
X0084690Y0182889D02*
X0074690Y0182889D01*
X0065423Y0182815D02*
X0016190Y0182815D01*
X0073810Y0172818D02*
X0074290Y0172818D01*
X0111190Y0162821D02*
X0113390Y0162821D01*
X0116190Y0172818D02*
X0119382Y0172818D01*
X0115090Y0197810D02*
X0114227Y0197810D01*
X0179690Y0147889D02*
X0179690Y0139139D01*
X0169305Y0127831D02*
X0168840Y0127831D01*
X0135690Y0102838D02*
X0071190Y0102838D01*
X0071190Y0097840D02*
X0135690Y0097840D01*
X0135690Y0092841D02*
X0071190Y0092841D01*
X0071190Y0087843D02*
X0135690Y0087843D01*
X0135690Y0067849D02*
X0071222Y0067849D01*
X0068843Y0062850D02*
X0135690Y0062850D01*
X0135690Y0057852D02*
X0053690Y0057852D01*
X0053690Y0052853D02*
X0135690Y0052853D01*
X0163690Y0052853D02*
X0170109Y0052853D01*
X0165534Y0057852D02*
X0163690Y0057852D01*
X0169690Y0062889D02*
X0174690Y0057889D01*
X0179270Y0052853D02*
X0200461Y0052853D01*
X0209690Y0052889D02*
X0199690Y0042889D01*
X0189690Y0042889D01*
X0185104Y0037858D02*
X0183913Y0037858D01*
X0182890Y0042856D02*
X0179339Y0042856D01*
X0174690Y0037889D02*
X0183440Y0029139D01*
X0310940Y0029139D01*
X0319690Y0037889D01*
X0318854Y0027861D02*
X0342813Y0027861D01*
X0341890Y0032859D02*
X0333852Y0032859D01*
X0338851Y0037858D02*
X0342779Y0037858D01*
X0343849Y0042856D02*
X0346556Y0042856D01*
X0348848Y0047855D02*
X0363256Y0047855D01*
X0363280Y0052853D02*
X0353846Y0052853D01*
X0358845Y0057852D02*
X0363304Y0057852D01*
X0363328Y0062850D02*
X0361190Y0062850D01*
X0361190Y0067849D02*
X0363352Y0067849D01*
X0363377Y0072847D02*
X0361190Y0072847D01*
X0361190Y0077846D02*
X0363401Y0077846D01*
X0363425Y0082844D02*
X0361190Y0082844D01*
X0361190Y0087843D02*
X0363449Y0087843D01*
X0363473Y0092841D02*
X0361190Y0092841D01*
X0361190Y0097840D02*
X0363497Y0097840D01*
X0363522Y0102838D02*
X0361190Y0102838D01*
X0361190Y0107837D02*
X0363546Y0107837D01*
X0363570Y0112835D02*
X0361190Y0112835D01*
X0361190Y0117834D02*
X0363594Y0117834D01*
X0363618Y0122832D02*
X0361190Y0122832D01*
X0361190Y0127831D02*
X0363642Y0127831D01*
X0363667Y0132830D02*
X0361190Y0132830D01*
X0361190Y0137828D02*
X0363691Y0137828D01*
X0363715Y0142827D02*
X0361190Y0142827D01*
X0361190Y0147825D02*
X0363739Y0147825D01*
X0363763Y0152824D02*
X0360717Y0152824D01*
X0363787Y0157822D02*
X0356449Y0157822D01*
X0351450Y0162821D02*
X0363812Y0162821D01*
X0363836Y0167819D02*
X0346452Y0167819D01*
X0341453Y0172818D02*
X0363860Y0172818D01*
X0363884Y0177816D02*
X0336455Y0177816D01*
X0331456Y0182815D02*
X0363908Y0182815D01*
X0363933Y0187813D02*
X0326458Y0187813D01*
X0334193Y0192812D02*
X0363957Y0192812D01*
X0363981Y0197810D02*
X0336464Y0197810D01*
X0334351Y0202809D02*
X0364005Y0202809D01*
X0364029Y0207807D02*
X0277691Y0207807D01*
X0272453Y0212806D02*
X0364053Y0212806D01*
X0364078Y0217804D02*
X0243732Y0217804D01*
X0247930Y0222803D02*
X0364102Y0222803D01*
X0364126Y0227801D02*
X0252129Y0227801D01*
X0256328Y0232800D02*
X0364150Y0232800D01*
X0364174Y0237798D02*
X0260527Y0237798D01*
X0264726Y0242797D02*
X0364198Y0242797D01*
X0364223Y0247795D02*
X0268924Y0247795D01*
X0273123Y0252794D02*
X0364247Y0252794D01*
X0364271Y0257792D02*
X0288762Y0257792D01*
X0293761Y0262791D02*
X0364295Y0262791D01*
X0364319Y0267789D02*
X0298759Y0267789D01*
X0303758Y0272788D02*
X0364343Y0272788D01*
X0364368Y0277786D02*
X0362688Y0277786D01*
X0346691Y0277786D02*
X0305290Y0277786D01*
X0314166Y0282785D02*
X0315920Y0282785D01*
X0319689Y0282785D02*
X0319690Y0282785D01*
X0323459Y0282785D02*
X0325213Y0282785D01*
X0319690Y0287783D02*
X0319689Y0287783D01*
X0319689Y0292782D02*
X0319690Y0292782D01*
X0323671Y0292782D02*
X0325001Y0292782D01*
X0315708Y0292782D02*
X0314378Y0292782D01*
X0305001Y0292782D02*
X0304378Y0292782D01*
X0295001Y0292782D02*
X0294378Y0292782D01*
X0285001Y0292782D02*
X0284378Y0292782D01*
X0334378Y0292782D02*
X0342750Y0292782D01*
X0341890Y0287783D02*
X0336464Y0287783D01*
X0334166Y0282785D02*
X0342857Y0282785D01*
X0305028Y0202809D02*
X0304351Y0202809D01*
X0299690Y0197889D02*
X0299690Y0177889D01*
X0334690Y0142889D01*
X0334690Y0115389D01*
X0334690Y0082889D02*
X0334690Y0067889D01*
X0339690Y0062889D01*
X0362823Y0042856D02*
X0363231Y0042856D01*
X0270129Y0122832D02*
X0256190Y0122832D01*
X0256190Y0127831D02*
X0267890Y0127831D01*
X0268190Y0132830D02*
X0256190Y0132830D01*
X0256190Y0137828D02*
X0268190Y0137828D01*
X0270435Y0142827D02*
X0256190Y0142827D01*
X0256490Y0147825D02*
X0275433Y0147825D01*
X0280432Y0152824D02*
X0256166Y0152824D01*
X0256109Y0172818D02*
X0295569Y0172818D01*
X0293190Y0177816D02*
X0256490Y0177816D01*
X0256169Y0182815D02*
X0293190Y0182815D01*
X0293190Y0187813D02*
X0235290Y0187813D01*
X0235290Y0192812D02*
X0255186Y0192812D01*
X0252915Y0197810D02*
X0237530Y0197810D01*
X0264193Y0192812D02*
X0265186Y0192812D01*
X0274193Y0192812D02*
X0275186Y0192812D01*
X0284193Y0192812D02*
X0285186Y0192812D01*
X0285028Y0202809D02*
X0284351Y0202809D01*
X0294351Y0202809D02*
X0295028Y0202809D01*
X0304690Y0147889D02*
X0294690Y0137889D01*
X0289690Y0137889D01*
X0240545Y0092841D02*
X0236190Y0092841D01*
X0229690Y0082889D02*
X0229690Y0107889D01*
X0219690Y0107889D02*
X0219690Y0082889D01*
X0212890Y0082844D02*
X0206490Y0082844D01*
X0204352Y0087843D02*
X0213190Y0087843D01*
X0215116Y0077846D02*
X0206190Y0077846D01*
X0206190Y0072847D02*
X0227996Y0072847D01*
X0225116Y0077846D02*
X0224263Y0077846D01*
X0219690Y0062889D02*
X0219690Y0042889D01*
X0224275Y0037858D02*
X0227890Y0037858D01*
X0227306Y0042856D02*
X0226490Y0042856D01*
X0234690Y0037889D02*
X0234690Y0047889D01*
X0215104Y0037858D02*
X0204275Y0037858D01*
X0208849Y0042856D02*
X0212890Y0042856D01*
X0209690Y0052889D02*
X0209690Y0062889D01*
X0199690Y0062889D02*
X0199690Y0082889D01*
X0192890Y0082844D02*
X0187151Y0082844D01*
X0188790Y0087843D02*
X0195027Y0087843D01*
X0193190Y0077846D02*
X0189290Y0077846D01*
X0187148Y0072847D02*
X0193190Y0072847D01*
X0189690Y0062889D02*
X0184690Y0062889D01*
X0179690Y0067889D01*
X0174690Y0077889D02*
X0169690Y0072889D01*
X0169690Y0062889D01*
X0174690Y0077889D02*
X0179690Y0077889D01*
X0204220Y0102838D02*
X0205159Y0102838D01*
X0209689Y0152824D02*
X0209690Y0152824D01*
X0185039Y0047855D02*
X0016190Y0047855D01*
X0016190Y0042856D02*
X0016556Y0042856D01*
X0053690Y0062850D02*
X0060404Y0062850D01*
X0058149Y0067849D02*
X0053690Y0067849D01*
X0065753Y0077889D02*
X0039690Y0077889D01*
X0053690Y0087843D02*
X0058190Y0087843D01*
X0058190Y0092841D02*
X0053690Y0092841D01*
X0053690Y0097840D02*
X0058190Y0097840D01*
X0058190Y0102838D02*
X0053690Y0102838D01*
X0058190Y0107837D02*
X0044820Y0107837D01*
X0046890Y0112835D02*
X0058190Y0112835D01*
X0036526Y0267789D02*
X0016190Y0267789D01*
X0016190Y0272788D02*
X0033615Y0272788D01*
X0033292Y0277786D02*
X0032688Y0277786D01*
X0016691Y0277786D02*
X0016190Y0277786D01*
D26*
X0258440Y0074139D03*
X0279690Y0266639D03*
D27*
X0268440Y0266639D01*
X0199690Y0187889D01*
X0199690Y0177889D01*
X0189690Y0177889D02*
X0189690Y0187889D01*
X0264690Y0272889D01*
X0279690Y0272889D01*
X0289690Y0282889D01*
X0289690Y0287889D01*
X0299690Y0287889D02*
X0299690Y0276639D01*
X0283440Y0260389D01*
X0272190Y0260389D01*
X0219690Y0197889D01*
X0219690Y0177889D01*
X0229690Y0177889D02*
X0229690Y0197889D01*
X0239690Y0207889D01*
X0269690Y0207889D01*
X0279690Y0197889D01*
X0139690Y0165389D02*
X0139690Y0152889D01*
M02*
