G75*
%MOIN*%
%OFA0B0*%
%FSLAX25Y25*%
%IPPOS*%
%LPD*%
%AMOC8*
5,1,8,0,0,1.08239X$1,22.5*
%
%ADD10C,0.13398*%
%ADD11OC8,0.06350*%
%ADD12C,0.06400*%
%ADD13R,0.06350X0.06350*%
%ADD14C,0.06350*%
%ADD15OC8,0.07200*%
%ADD16OC8,0.06400*%
%ADD17OC8,0.07100*%
%ADD18C,0.07100*%
%ADD19C,0.07200*%
%ADD20C,0.07900*%
%ADD21C,0.15800*%
%ADD22R,0.08800X0.08800*%
%ADD23C,0.08800*%
%ADD24C,0.06743*%
%ADD25R,0.05156X0.05156*%
D10*
X0024690Y0032889D03*
X0024690Y0287889D03*
X0354690Y0287889D03*
X0354690Y0032889D03*
D11*
X0329690Y0197889D03*
X0319690Y0197889D03*
X0309690Y0197889D03*
X0299690Y0197889D03*
X0289690Y0197889D03*
X0279690Y0197889D03*
X0269690Y0197889D03*
X0259690Y0197889D03*
X0259690Y0287889D03*
X0269690Y0287889D03*
X0279690Y0287889D03*
X0289690Y0287889D03*
X0299690Y0287889D03*
X0309690Y0287889D03*
X0319690Y0287889D03*
X0329690Y0287889D03*
D12*
X0249690Y0180689D02*
X0249690Y0175089D01*
X0239690Y0175089D02*
X0239690Y0180689D01*
X0229690Y0180689D02*
X0229690Y0175089D01*
X0219690Y0175089D02*
X0219690Y0180689D01*
X0209690Y0180689D02*
X0209690Y0175089D01*
X0199690Y0175089D02*
X0199690Y0180689D01*
X0189690Y0180689D02*
X0189690Y0175089D01*
X0179690Y0175089D02*
X0179690Y0180689D01*
X0157490Y0179139D02*
X0151890Y0179139D01*
X0151890Y0189139D02*
X0157490Y0189139D01*
X0157490Y0199139D02*
X0151890Y0199139D01*
X0151890Y0209139D02*
X0157490Y0209139D01*
X0127490Y0209139D02*
X0121890Y0209139D01*
X0121890Y0199139D02*
X0127490Y0199139D01*
X0127490Y0189139D02*
X0121890Y0189139D01*
X0121890Y0179139D02*
X0127490Y0179139D01*
X0139690Y0155689D02*
X0139690Y0150089D01*
X0127490Y0152889D02*
X0121890Y0152889D01*
X0121890Y0142889D02*
X0127490Y0142889D01*
X0127490Y0132889D02*
X0121890Y0132889D01*
X0139690Y0125689D02*
X0139690Y0120089D01*
X0179690Y0145089D02*
X0179690Y0150689D01*
X0189690Y0150689D02*
X0189690Y0145089D01*
X0199690Y0145089D02*
X0199690Y0150689D01*
X0209690Y0150689D02*
X0209690Y0145089D01*
X0219690Y0145089D02*
X0219690Y0150689D01*
X0229690Y0150689D02*
X0229690Y0145089D01*
X0239690Y0145089D02*
X0239690Y0150689D01*
X0249690Y0150689D02*
X0249690Y0145089D01*
X0286890Y0147889D02*
X0292490Y0147889D01*
X0292490Y0137889D02*
X0286890Y0137889D01*
X0286890Y0127889D02*
X0292490Y0127889D01*
X0296890Y0117889D02*
X0302490Y0117889D01*
X0302490Y0107889D02*
X0296890Y0107889D01*
X0296890Y0097889D02*
X0302490Y0097889D01*
X0302490Y0082889D02*
X0296890Y0082889D01*
X0296890Y0072889D02*
X0302490Y0072889D01*
X0302490Y0062889D02*
X0296890Y0062889D01*
X0314690Y0080089D02*
X0314690Y0085689D01*
X0324690Y0085689D02*
X0324690Y0080089D01*
X0334690Y0080089D02*
X0334690Y0085689D01*
X0272490Y0077889D02*
X0266890Y0077889D01*
X0266890Y0067889D02*
X0272490Y0067889D01*
X0272490Y0057889D02*
X0266890Y0057889D01*
X0237490Y0057889D02*
X0231890Y0057889D01*
X0231890Y0047889D02*
X0237490Y0047889D01*
X0219690Y0060089D02*
X0219690Y0065689D01*
X0209690Y0065689D02*
X0209690Y0060089D01*
X0199690Y0060089D02*
X0199690Y0065689D01*
X0182490Y0067889D02*
X0176890Y0067889D01*
X0176890Y0077889D02*
X0182490Y0077889D01*
X0182490Y0087889D02*
X0176890Y0087889D01*
X0231890Y0067889D02*
X0237490Y0067889D01*
D13*
X0189690Y0107889D03*
D14*
X0199690Y0107889D03*
X0209690Y0107889D03*
X0219690Y0107889D03*
X0229690Y0107889D03*
X0239690Y0107889D03*
X0249690Y0107889D03*
X0249690Y0117889D03*
X0239690Y0117889D03*
X0229690Y0117889D03*
X0219690Y0117889D03*
X0209690Y0117889D03*
X0199690Y0117889D03*
X0189690Y0117889D03*
D15*
X0039690Y0112889D03*
X0039690Y0202889D03*
D16*
X0069690Y0232889D03*
X0089690Y0232889D03*
X0099690Y0232889D03*
X0119690Y0232889D03*
X0109690Y0212889D03*
X0109690Y0202889D03*
X0099690Y0202889D03*
X0089690Y0212889D03*
X0099690Y0182889D03*
X0109690Y0182889D03*
X0119690Y0165389D03*
X0139690Y0165389D03*
X0167190Y0224139D03*
X0167190Y0244139D03*
X0304690Y0147889D03*
X0319690Y0147889D03*
X0319690Y0127889D03*
X0314690Y0115389D03*
X0314690Y0101639D03*
X0334690Y0101639D03*
X0334690Y0115389D03*
X0304690Y0127889D03*
X0274690Y0127889D03*
X0274690Y0107889D03*
X0272190Y0089139D03*
X0292190Y0089139D03*
X0284690Y0067889D03*
X0284690Y0047889D03*
X0299690Y0047889D03*
X0319690Y0047889D03*
X0319690Y0062889D03*
X0339690Y0062889D03*
X0269690Y0047889D03*
X0254690Y0037889D03*
X0249690Y0047889D03*
X0234690Y0037889D03*
X0219690Y0042889D03*
X0199690Y0042889D03*
X0189690Y0042889D03*
X0174690Y0037889D03*
X0174690Y0057889D03*
X0189690Y0062889D03*
X0199690Y0082889D03*
X0219690Y0082889D03*
X0229690Y0082889D03*
X0249690Y0082889D03*
D17*
X0162190Y0128639D03*
X0134690Y0232889D03*
X0193440Y0244889D03*
X0049690Y0232889D03*
D18*
X0035690Y0232889D03*
X0148690Y0232889D03*
X0193440Y0230889D03*
X0162190Y0114639D03*
D19*
X0087890Y0172889D02*
X0081490Y0172889D01*
X0081490Y0182889D02*
X0087890Y0182889D01*
X0087890Y0192889D02*
X0081490Y0192889D01*
X0084690Y0259689D02*
X0084690Y0266089D01*
X0094690Y0266089D02*
X0094690Y0259689D01*
X0104690Y0259689D02*
X0104690Y0266089D01*
D20*
X0108240Y0147889D02*
X0101140Y0147889D01*
X0068240Y0147889D02*
X0061140Y0147889D01*
D21*
X0044690Y0275889D03*
X0144690Y0275889D03*
D22*
X0204532Y0282889D03*
D23*
X0184847Y0282889D03*
D24*
X0123627Y0077889D03*
X0107682Y0077889D03*
X0081697Y0077889D03*
X0065753Y0077889D03*
D25*
X0258440Y0074139D03*
X0279690Y0266639D03*
M02*
